<svg width="37" height="37" viewBox="0 0 37 37" fill="none" xmlns="http://www.w3.org/2000/svg">
<circle cx="18.5" cy="18.5" r="18" stroke="#DDE1E4"/>
<path d="M15.9308 12.1924C16.3689 12.3408 16.7856 12.5459 17.1704 12.8026C17.7138 12.6637 18.2726 12.5939 18.8335 12.5949C19.4127 12.5949 19.9715 12.6672 20.4954 12.802C20.88 12.5456 21.2966 12.3407 21.7344 12.1924C22.141 12.0542 22.7202 11.8302 23.0644 12.2111C23.2977 12.4701 23.356 12.9041 23.3975 13.2354C23.4441 13.6052 23.4552 14.0871 23.3327 14.5654C23.8011 15.1703 24.0835 15.8919 24.0835 16.6782C24.0835 17.8694 23.4383 18.9037 22.4834 19.62C22.0238 19.9604 21.5141 20.2272 20.9725 20.411C21.0974 20.6968 21.1668 21.013 21.1668 21.3449V23.0949C21.1668 23.2496 21.1053 23.398 20.9959 23.5074C20.8865 23.6168 20.7382 23.6782 20.5835 23.6782H17.0835C16.9288 23.6782 16.7804 23.6168 16.671 23.5074C16.5616 23.398 16.5001 23.2496 16.5001 23.0949V22.5168C15.9431 22.5851 15.4758 22.5244 15.0786 22.3558C14.6632 22.1797 14.3739 21.9067 14.1563 21.6453C13.9498 21.398 13.7246 20.8403 13.3991 20.7318C13.3264 20.7076 13.2592 20.6693 13.2013 20.6191C13.1434 20.569 13.096 20.5079 13.0617 20.4393C12.9924 20.301 12.981 20.1407 13.0299 19.9939C13.0788 19.8471 13.184 19.7257 13.3224 19.6565C13.4608 19.5872 13.621 19.5758 13.7678 19.6247C14.1563 19.7542 14.4095 20.0342 14.5827 20.2593C14.8627 20.621 15.0902 21.0935 15.5336 21.2819C15.7161 21.3595 15.9839 21.4102 16.4027 21.3531L16.5001 21.3332C16.5012 21.0158 16.5674 20.7019 16.6944 20.411C16.1528 20.2272 15.6431 19.9604 15.1836 19.62C14.2286 18.9037 13.5835 17.87 13.5835 16.6782C13.5835 15.8931 13.8652 15.1721 14.3325 14.5677C14.21 14.0894 14.2205 13.6064 14.2671 13.236L14.2701 13.2138C14.3126 12.8743 14.3622 12.4747 14.6002 12.2111C14.9444 11.8302 15.5242 12.0547 15.9302 12.193L15.9308 12.1924Z" fill="black"/>
</svg>
