<svg width="37" height="37" viewBox="0 0 37 37" fill="none" xmlns="http://www.w3.org/2000/svg">
<circle cx="18.5" cy="18.5" r="18" stroke="#353535"/>
<path d="M24.8936 16.9187C24.9651 17.3214 25.0007 17.7294 25 18.1382C25 19.9636 24.3343 21.5071 23.176 22.5518H23.1775C22.1645 23.469 20.772 24 19.1209 24C17.4975 24 15.9407 23.3679 14.7928 22.2427C13.6449 21.1175 13 19.5914 13 18.0002C13 16.4089 13.6449 14.8828 14.7928 13.7577C15.9407 12.6325 17.4975 12.0004 19.1209 12.0004C20.6402 11.9838 22.1073 12.5432 23.2158 13.5618L21.4682 15.2748C20.8364 14.6847 19.9934 14.3615 19.1209 14.3748C17.5241 14.3748 16.1676 15.4308 15.684 16.8527C15.4281 17.5979 15.4281 18.4047 15.684 19.1499H15.6863C16.1721 20.5696 17.5264 21.6256 19.1232 21.6256C19.948 21.6256 20.6565 21.4186 21.2058 21.0526H21.2035C21.5226 20.8455 21.7955 20.5772 22.0057 20.2638C22.216 19.9505 22.3593 19.5986 22.4269 19.2294H19.1209V16.9195L24.8936 16.9187Z" fill="black" fill-opacity="0.7"/>
</svg>
