<svg width="37" height="37" viewBox="0 0 37 37" fill="none" xmlns="http://www.w3.org/2000/svg">
<circle cx="18.5" cy="18.5" r="18" stroke="#353535"/>
<path d="M24.4776 21.9994H23.0542C22.5159 21.9994 22.3537 21.5477 21.3888 20.5475C20.5455 19.7056 20.1893 19.6009 19.976 19.6009C19.6809 19.6009 19.6005 19.6849 19.6005 20.1055V21.4314C19.6005 21.79 19.4882 22 18.5837 22C17.7063 21.9389 16.8554 21.6628 16.1012 21.1944C15.3469 20.7259 14.7109 20.0786 14.2455 19.3056C13.1405 17.8809 12.3716 16.2088 12 14.4222C12 14.2012 12.0811 14.0009 12.4878 14.0009H13.9099C14.2755 14.0009 14.4071 14.1695 14.5505 14.5591C15.241 16.6642 16.4193 18.4954 16.8977 18.4954C17.0811 18.4954 17.161 18.4114 17.161 17.9378V15.7693C17.1005 14.7801 16.5933 14.6968 16.5933 14.3388C16.5998 14.2444 16.6415 14.1562 16.7096 14.0931C16.7777 14.03 16.8669 13.9969 16.9582 14.0009H19.1938C19.4994 14.0009 19.6005 14.1585 19.6005 14.5372V17.4641C19.6005 17.7801 19.7315 17.8848 19.8238 17.8848C20.0072 17.8848 20.1481 17.7801 20.4843 17.4325C21.205 16.5221 21.7938 15.5078 22.2321 14.4215C22.277 14.2911 22.3618 14.1795 22.4736 14.1036C22.5854 14.0278 22.7181 13.9919 22.8515 14.0015H24.2743C24.7009 14.0015 24.7914 14.2225 24.7009 14.5378C24.1834 15.7386 23.5431 16.8784 22.791 17.9378C22.6375 18.1801 22.5764 18.3061 22.791 18.5904C22.932 18.8113 23.431 19.243 23.7659 19.6532C24.2537 20.1572 24.6585 20.74 24.9648 21.3784C25.087 21.7894 24.8837 21.9994 24.4776 21.9994Z" fill="black" fill-opacity="0.7"/>
</svg>
